<svg width="25" height="25" viewBox="0 0 25 25" fill="none" xmlns="http://www.w3.org/2000/svg">
<path d="M17.9688 3.32031H7.03125C6.66865 3.32031 6.3209 3.46436 6.0645 3.72075C5.80811 3.97715 5.66406 4.3249 5.66406 4.6875V21.875C5.66394 21.9791 5.69203 22.0813 5.74533 22.1707C5.79864 22.2601 5.87517 22.3334 5.9668 22.3828C6.0512 22.4367 6.14989 22.464 6.25 22.4609C6.36023 22.4606 6.46828 22.4302 6.5625 22.373L12.5 18.6621L18.4375 22.373C18.5272 22.4268 18.6295 22.456 18.734 22.4578C18.8386 22.4595 18.9418 22.4336 19.0332 22.3828C19.1248 22.3334 19.2014 22.2601 19.2547 22.1707C19.308 22.0813 19.3361 21.9791 19.3359 21.875V4.6875C19.3359 4.3249 19.1919 3.97715 18.9355 3.72075C18.6791 3.46436 18.3314 3.32031 17.9688 3.32031ZM18.1641 20.8203L12.8125 17.4707C12.7185 17.4128 12.6104 17.3822 12.5 17.3822C12.3896 17.3822 12.2815 17.4128 12.1875 17.4707L6.83594 20.8203V4.6875C6.83594 4.6357 6.85652 4.58602 6.89314 4.54939C6.92977 4.51276 6.97945 4.49219 7.03125 4.49219H17.9688C18.0206 4.49219 18.0702 4.51276 18.1069 4.54939C18.1435 4.58602 18.1641 4.6357 18.1641 4.6875V20.8203Z" fill="white"/>
</svg>
